<?xml version="1.0" encoding="UTF-8" standalone="no"?>
<!-- Created with Inkscape (http://www.inkscape.org/) -->

<svg
   xmlns:dc="http://purl.org/dc/elements/1.1/"
   xmlns:cc="http://creativecommons.org/ns#"
   xmlns:rdf="http://www.w3.org/1999/02/22-rdf-syntax-ns#"
   xmlns:svg="http://www.w3.org/2000/svg"
   xmlns="http://www.w3.org/2000/svg"
   xmlns:sodipodi="http://sodipodi.sourceforge.net/DTD/sodipodi-0.dtd"
   xmlns:inkscape="http://www.inkscape.org/namespaces/inkscape"
   width="1024"
   height="1024"
   viewBox="0 0 270.93333 270.93334"
   version="1.1"
   id="svg8"
   inkscape:version="0.92.2 2405546, 2018-03-11"
   sodipodi:docname="users_mock.svg"
   inkscape:export-filename="/home/sujaykumar/Development/Projects/lightdm-themes/sapphire/images/mockUser2.png"
   inkscape:export-xdpi="96"
   inkscape:export-ydpi="96">
  <title
     id="title815">UsersImage</title>
  <defs
     id="defs2" />
  <sodipodi:namedview
     id="base"
     pagecolor="#ffffff"
     bordercolor="#666666"
     borderopacity="1.0"
     inkscape:pageopacity="0.0"
     inkscape:pageshadow="2"
     inkscape:zoom="0.7"
     inkscape:cx="222.6391"
     inkscape:cy="546.87188"
     inkscape:document-units="px"
     inkscape:current-layer="g871"
     showgrid="false"
     units="px"
     inkscape:window-width="1920"
     inkscape:window-height="1010"
     inkscape:window-x="1600"
     inkscape:window-y="28"
     inkscape:window-maximized="1" />
  <metadata
     id="metadata5">
    <rdf:RDF>
      <cc:Work
         rdf:about="">
        <dc:format>image/svg+xml</dc:format>
        <dc:type
           rdf:resource="http://purl.org/dc/dcmitype/StillImage" />
        <dc:title>UsersImage</dc:title>
        <dc:creator>
          <cc:Agent>
            <dc:title>Sujaykumar</dc:title>
          </cc:Agent>
        </dc:creator>
        <dc:rights>
          <cc:Agent>
            <dc:title>Creative Commons Attribution-NonCommercial-ShareAlike 4.0 International License.</dc:title>
          </cc:Agent>
        </dc:rights>
        <dc:publisher>
          <cc:Agent>
            <dc:title>hello@sujaykumarh.com</dc:title>
          </cc:Agent>
        </dc:publisher>
        <cc:license
           rdf:resource="http://creativecommons.org/licenses/by-nc-sa/4.0/" />
      </cc:Work>
      <cc:License
         rdf:about="http://creativecommons.org/licenses/by-nc-sa/4.0/">
        <cc:permits
           rdf:resource="http://creativecommons.org/ns#Reproduction" />
        <cc:permits
           rdf:resource="http://creativecommons.org/ns#Distribution" />
        <cc:requires
           rdf:resource="http://creativecommons.org/ns#Notice" />
        <cc:requires
           rdf:resource="http://creativecommons.org/ns#Attribution" />
        <cc:prohibits
           rdf:resource="http://creativecommons.org/ns#CommercialUse" />
        <cc:permits
           rdf:resource="http://creativecommons.org/ns#DerivativeWorks" />
        <cc:requires
           rdf:resource="http://creativecommons.org/ns#ShareAlike" />
      </cc:License>
    </rdf:RDF>
  </metadata>
  <g
     inkscape:label="USER1"
     inkscape:groupmode="layer"
     id="layer1"
     transform="translate(0,-26.066658)"
     style="display:inline"
     sodipodi:insensitive="true">
    <rect
       y="59.607994"
       x="20.308937"
       height="203.85066"
       width="230.31546"
       id="rect840"
       style="opacity:1;fill:#06cdff;fill-opacity:1;fill-rule:evenodd;stroke:none;stroke-width:1.2853862"
       ry="27.843018" />
    <rect
       ry="25.522377"
       style="opacity:1;fill:#2ad4ff;fill-opacity:1;fill-rule:evenodd;stroke:none;stroke-width:1.1782527"
       id="rect868"
       width="211.11929"
       height="186.86028"
       x="29.907021"
       y="68.103188" />
    <g
       id="g911">
      <path
         inkscape:connector-curvature="0"
         transform="matrix(0.26458333,0,0,0.26458333,0,26.066658)"
         id="path898"
         d="m 626.75781,774.19336 h 6.47657 c 21.4787,0 38.76953,-17.29083 38.76953,-38.76953 0,-21.4787 -17.29083,-38.77149 -38.76953,-38.77149 h -6.47657 z"
         style="opacity:1;fill:#ffffff;fill-opacity:1;fill-rule:evenodd;stroke:none;stroke-width:0.96457958" />
      <path
         inkscape:connector-curvature="0"
         id="path896"
         transform="matrix(0.26458333,0,0,0.26458333,0,26.066658)"
         d="m 390.76562,696.65234 c -21.47866,0 -38.76953,17.29279 -38.76953,38.77149 0,21.4787 17.29087,38.76953 38.76953,38.76953 h 11.58985 v -77.54102 z m 34.55274,0 v 77.54102 h 27.39648 v -77.54102 z m 50.35937,0 v 77.54102 h 27.39844 v -77.54102 z m 50.35938,0 v 77.54102 h 27.39844 v -77.54102 z m 50.36133,0 v 77.54102 h 27.39648 v -77.54102 z"
         style="opacity:1;fill:#ffffff;fill-opacity:1;fill-rule:evenodd;stroke:none;stroke-width:0.96457958" />
    </g>
    <g
       id="g860"
       transform="matrix(1.2923406,0,0,1.2923406,-36.690081,-16.146809)">
      <circle
         r="24.352467"
         cy="133.56308"
         cx="91.068794"
         id="path844"
         style="opacity:1;fill:#ffffff;fill-opacity:1;fill-rule:evenodd;stroke:none;stroke-width:0.56822419" />
      <circle
         style="opacity:1;fill:#b3b3b3;fill-opacity:1;fill-rule:evenodd;stroke:none;stroke-width:0.26458332"
         id="circle856"
         cx="91.074951"
         cy="133.56308"
         r="12.624405" />
    </g>
    <g
       id="g866"
       transform="matrix(1.2923406,0,0,1.2923406,72.239618,-16.146809)">
      <circle
         style="opacity:1;fill:#ffffff;fill-opacity:1;fill-rule:evenodd;stroke:none;stroke-width:0.56822419"
         id="circle862"
         cx="91.068794"
         cy="133.56308"
         r="24.352467" />
      <circle
         r="12.624405"
         cy="133.56308"
         cx="91.074951"
         id="circle864"
         style="opacity:1;fill:#b3b3b3;fill-opacity:1;fill-rule:evenodd;stroke:none;stroke-width:0.26458332" />
    </g>
  </g>
  <g
     style="display:none"
     inkscape:label="USER2"
     inkscape:groupmode="layer"
     id="g871"
     transform="translate(0,-26.066658)">
    <rect
       y="59.607994"
       x="20.308937"
       height="203.85066"
       width="230.31546"
       id="rect848"
       style="opacity:1;fill:#666666;fill-opacity:1;fill-rule:evenodd;stroke:none;stroke-width:1.2853862"
       ry="27.843018" />
    <rect
       ry="25.522377"
       style="opacity:1;fill:#999999;fill-opacity:1;fill-rule:evenodd;stroke:none;stroke-width:1.1782527"
       id="rect850"
       width="211.11929"
       height="186.86028"
       x="29.907021"
       y="68.103188" />
    <g
       id="g856">
      <path
         inkscape:connector-curvature="0"
         transform="matrix(0.26458333,0,0,0.26458333,0,26.066658)"
         id="path852"
         d="m 626.75781,774.19336 h 6.47657 c 21.4787,0 38.76953,-17.29083 38.76953,-38.76953 0,-21.4787 -17.29083,-38.77149 -38.76953,-38.77149 h -6.47657 z"
         style="opacity:1;fill:#ffffff;fill-opacity:1;fill-rule:evenodd;stroke:none;stroke-width:0.96457958" />
      <path
         inkscape:connector-curvature="0"
         id="path854"
         transform="matrix(0.26458333,0,0,0.26458333,0,26.066658)"
         d="m 390.76562,696.65234 c -21.47866,0 -38.76953,17.29279 -38.76953,38.77149 0,21.4787 17.29087,38.76953 38.76953,38.76953 h 11.58985 v -77.54102 z m 34.55274,0 v 77.54102 h 27.39648 v -77.54102 z m 50.35937,0 v 77.54102 h 27.39844 v -77.54102 z m 50.35938,0 v 77.54102 h 27.39844 v -77.54102 z m 50.36133,0 v 77.54102 h 27.39648 v -77.54102 z"
         style="opacity:1;fill:#ffffff;fill-opacity:1;fill-rule:evenodd;stroke:none;stroke-width:0.96457958" />
    </g>
    <g
       id="g862"
       transform="matrix(1.2923406,0,0,1.2923406,-36.690081,-16.146809)">
      <circle
         r="24.352467"
         cy="133.56308"
         cx="91.068794"
         id="circle858"
         style="opacity:1;fill:#ffffff;fill-opacity:1;fill-rule:evenodd;stroke:none;stroke-width:0.56822419" />
      <circle
         style="opacity:1;fill:#b3b3b3;fill-opacity:1;fill-rule:evenodd;stroke:none;stroke-width:0.26458332"
         id="circle860"
         cx="91.074951"
         cy="133.56308"
         r="12.624405" />
    </g>
    <g
       id="g869"
       transform="matrix(1.2923406,0,0,1.2923406,72.239618,-16.146809)">
      <circle
         style="opacity:1;fill:#ffffff;fill-opacity:1;fill-rule:evenodd;stroke:none;stroke-width:0.56822419"
         id="circle865"
         cx="91.068794"
         cy="133.56308"
         r="24.352467" />
      <circle
         r="12.624405"
         cy="133.56308"
         cx="91.074951"
         id="circle867"
         style="opacity:1;fill:#b3b3b3;fill-opacity:1;fill-rule:evenodd;stroke:none;stroke-width:0.26458332" />
    </g>
  </g>
  <g
     style="display:none"
     inkscape:label="USER3"
     inkscape:groupmode="layer"
     id="g959"
     transform="translate(0,-26.066658)"
     sodipodi:insensitive="true">
    <rect
       y="59.607994"
       x="20.308937"
       height="203.85066"
       width="230.31546"
       id="rect937"
       style="opacity:1;fill:#c83737;fill-opacity:1;fill-rule:evenodd;stroke:none;stroke-width:1.2853862"
       ry="27.843018" />
    <rect
       ry="25.522377"
       style="opacity:1;fill:#d35f5f;fill-opacity:1;fill-rule:evenodd;stroke:none;stroke-width:1.1782527"
       id="rect939"
       width="211.11929"
       height="186.86028"
       x="29.907021"
       y="68.103188" />
    <g
       id="g945">
      <path
         inkscape:connector-curvature="0"
         transform="matrix(0.26458333,0,0,0.26458333,0,26.066658)"
         id="path941"
         d="m 626.75781,774.19336 h 6.47657 c 21.4787,0 38.76953,-17.29083 38.76953,-38.76953 0,-21.4787 -17.29083,-38.77149 -38.76953,-38.77149 h -6.47657 z"
         style="opacity:1;fill:#ffffff;fill-opacity:1;fill-rule:evenodd;stroke:none;stroke-width:0.96457958" />
      <path
         inkscape:connector-curvature="0"
         id="path943"
         transform="matrix(0.26458333,0,0,0.26458333,0,26.066658)"
         d="m 390.76562,696.65234 c -21.47866,0 -38.76953,17.29279 -38.76953,38.77149 0,21.4787 17.29087,38.76953 38.76953,38.76953 h 11.58985 v -77.54102 z m 34.55274,0 v 77.54102 h 27.39648 v -77.54102 z m 50.35937,0 v 77.54102 h 27.39844 v -77.54102 z m 50.35938,0 v 77.54102 h 27.39844 v -77.54102 z m 50.36133,0 v 77.54102 h 27.39648 v -77.54102 z"
         style="opacity:1;fill:#ffffff;fill-opacity:1;fill-rule:evenodd;stroke:none;stroke-width:0.96457958" />
    </g>
    <g
       id="g951"
       transform="matrix(1.2923406,0,0,1.2923406,-36.690081,-16.146809)">
      <circle
         r="24.352467"
         cy="133.56308"
         cx="91.068794"
         id="circle947"
         style="opacity:1;fill:#ffffff;fill-opacity:1;fill-rule:evenodd;stroke:none;stroke-width:0.56822419" />
      <circle
         style="opacity:1;fill:#b3b3b3;fill-opacity:1;fill-rule:evenodd;stroke:none;stroke-width:0.26458332"
         id="circle949"
         cx="91.074951"
         cy="133.56308"
         r="12.624405" />
    </g>
    <g
       id="g957"
       transform="matrix(1.2923406,0,0,1.2923406,72.239618,-16.146809)">
      <circle
         style="opacity:1;fill:#ffffff;fill-opacity:1;fill-rule:evenodd;stroke:none;stroke-width:0.56822419"
         id="circle953"
         cx="91.068794"
         cy="133.56308"
         r="24.352467" />
      <circle
         r="12.624405"
         cy="133.56308"
         cx="91.074951"
         id="circle955"
         style="opacity:1;fill:#b3b3b3;fill-opacity:1;fill-rule:evenodd;stroke:none;stroke-width:0.26458332" />
    </g>
  </g>
  <g
     transform="translate(0,-26.066658)"
     id="g935"
     inkscape:groupmode="layer"
     inkscape:label="USER4"
     style="display:none"
     sodipodi:insensitive="true">
    <rect
       ry="27.843018"
       style="opacity:1;fill:#37c871;fill-opacity:1;fill-rule:evenodd;stroke:none;stroke-width:1.2853862"
       id="rect913"
       width="230.31546"
       height="203.85066"
       x="20.308937"
       y="59.607994" />
    <rect
       y="68.103188"
       x="29.907021"
       height="186.86028"
       width="211.11929"
       id="rect915"
       style="opacity:1;fill:#5fd38d;fill-opacity:1;fill-rule:evenodd;stroke:none;stroke-width:1.1782527"
       ry="25.522377" />
    <g
       id="g921">
      <path
         style="opacity:1;fill:#ffffff;fill-opacity:1;fill-rule:evenodd;stroke:none;stroke-width:0.96457958"
         d="m 626.75781,774.19336 h 6.47657 c 21.4787,0 38.76953,-17.29083 38.76953,-38.76953 0,-21.4787 -17.29083,-38.77149 -38.76953,-38.77149 h -6.47657 z"
         id="path917"
         transform="matrix(0.26458333,0,0,0.26458333,0,26.066658)"
         inkscape:connector-curvature="0" />
      <path
         style="opacity:1;fill:#ffffff;fill-opacity:1;fill-rule:evenodd;stroke:none;stroke-width:0.96457958"
         d="m 390.76562,696.65234 c -21.47866,0 -38.76953,17.29279 -38.76953,38.77149 0,21.4787 17.29087,38.76953 38.76953,38.76953 h 11.58985 v -77.54102 z m 34.55274,0 v 77.54102 h 27.39648 v -77.54102 z m 50.35937,0 v 77.54102 h 27.39844 v -77.54102 z m 50.35938,0 v 77.54102 h 27.39844 v -77.54102 z m 50.36133,0 v 77.54102 h 27.39648 v -77.54102 z"
         transform="matrix(0.26458333,0,0,0.26458333,0,26.066658)"
         id="path919"
         inkscape:connector-curvature="0" />
    </g>
    <g
       transform="matrix(1.2923406,0,0,1.2923406,-36.690081,-16.146809)"
       id="g927">
      <circle
         style="opacity:1;fill:#ffffff;fill-opacity:1;fill-rule:evenodd;stroke:none;stroke-width:0.56822419"
         id="circle923"
         cx="91.068794"
         cy="133.56308"
         r="24.352467" />
      <circle
         r="12.624405"
         cy="133.56308"
         cx="91.074951"
         id="circle925"
         style="opacity:1;fill:#b3b3b3;fill-opacity:1;fill-rule:evenodd;stroke:none;stroke-width:0.26458332" />
    </g>
    <g
       transform="matrix(1.2923406,0,0,1.2923406,72.239618,-16.146809)"
       id="g933">
      <circle
         r="24.352467"
         cy="133.56308"
         cx="91.068794"
         id="circle929"
         style="opacity:1;fill:#ffffff;fill-opacity:1;fill-rule:evenodd;stroke:none;stroke-width:0.56822419" />
      <circle
         style="opacity:1;fill:#b3b3b3;fill-opacity:1;fill-rule:evenodd;stroke:none;stroke-width:0.26458332"
         id="circle931"
         cx="91.074951"
         cy="133.56308"
         r="12.624405" />
    </g>
  </g>
</svg>
